# xmcd
#
# Track frame offsets:
#	150
#	16585
#	30875
#	46297
#	66332
#	86650
#	106595
#	122915
#	139838
#	164448
#	181540
#	198915
#	214285
#	236380
#	252977
#
# Disc length: 3616
#
# Revision: 1
# Processed by: cddbd v1.5.1PL0 Copyright (c) Steve Scherf et al.
# Submitted via: FreeRIP 2.90 
# Normalized: r0:TRMNUM
#
DISCID=bd0e1e0f
DTITLE=DEMIS ROUSSOS - LO MEJOR DE DEMIS ROUSSOS
DYEAR=1900
DGENRE=Folk
TTITLE0=FOREVER AND EVER
TTITLE1=QUISIERA BAILAR ESTA CANCION
TTITLE2=RAIN AND TEARS
TTITLE3=MORIR AL LADO DE MI AMOR
TTITLE4=WE SHALL DANCE
TTITLE5=MAÑANAS DE TERCIOPELO
TTITLE6=MY REASON
TTITLE7=END OF THE WORLD
TTITLE8=MY FRIEND THE WIND
TTITLE9=IT`S FIVE O´CLOCK
TTITLE10=BREAK
TTITLE11=LOVELY LADY OF ARCADIA
TTITLE12=SPRING.SUMMER.WINTER AND FALL
TTITLE13=I WANT TO LIVE
TTITLE14=MARIE JOLIE
EXTD=
EXTT0=
EXTT1=
EXTT2=
EXTT3=
EXTT4=
EXTT5=
EXTT6=
EXTT7=
EXTT8=
EXTT9=
EXTT10=
EXTT11=
EXTT12=
EXTT13=
EXTT14=
PLAYORDER=
